<svg xmlns="http://www.w3.org/2000/svg" width="52" height="52">
    <path fill="#009A24" fill-rule="evenodd" d="M26 0c14.359 0 26 11.64 26 26 0 14.359-11.641 26-26 26C11.64 52 0 40.359 0 26 0 11.64 11.64 0 26 0z"/>
    <path fill="#FFF" fill-rule="evenodd" d="M41 19.763s-3.685 2.692-5.389 2.892c.053.367.09.739.09 1.121v4.922c1.165 1.24 1.844 2.715 1.844 4.3 0 4.402-5.218 7.971-11.656 7.971-6.437 0-11.655-3.569-11.655-7.971 0-1.584.679-3.059 1.844-4.3v-4.922c0-.394.039-.778.095-1.157C14.394 22.242 11 19.763 11 19.763s3.976-2.907 5.578-2.907c.166 0 .348.037.536.093a4.865 4.865 0 0 1 2.715-5.978 5.82 5.82 0 0 0 .946 5.655 7.748 7.748 0 0 1 3.09-.641h4.049c1.16 0 2.257.26 3.247.715a5.812 5.812 0 0 0 1.01-5.729 4.863 4.863 0 0 1 2.714 5.978c.189-.056.371-.093.537-.093 1.601 0 5.578 2.907 5.578 2.907zM21.5 32.999a1.5 1.5 0 1 0 0-3 1.5 1.5 0 0 0 0 3zm2.235-11.067a2.477 2.477 0 0 0-2.475-2.481 2.477 2.477 0 0 0-2.475 2.481v4.749c1.425-.751 3.111-1.281 4.95-1.517v-3.232zM30.5 32.999a1.5 1.5 0 1 0 0-3 1.5 1.5 0 0 0 0 3zm2.631-11.067a2.478 2.478 0 0 0-2.476-2.481 2.477 2.477 0 0 0-2.475 2.481v3.249c1.845.251 3.531.802 4.951 1.573v-4.822z"/>
</svg>
